<svg id="Ebene_1" xmlns="http://www.w3.org/2000/svg" version="1.1" viewBox="0 0 168 62" width="168" height="62">
  <path fill="white" d="M2.1,56.7c-1.7-.6-2.6-2.5-1.9-4.2L15.6,8.8c.6-1.7,2.5-2.6,4.2-2,1.7.6,2.6,2.5,1.9,4.2L6.3,54.8c-.6,1.7-2.5,2.6-4.2,1.9Z"/>
  <path fill="white" d="M53.6,57.6L32.2,2.1c-.6-1.7-2.5-2.6-4.2-1.9-1.7.6-2.6,2.5-1.9,4.2l12,31.2h-13.7c-1.8,0-3.2,1.5-3.2,3.3s1.5,3.3,3.2,3.3h16.2l6.9,17.8c.6,1.7,2.5,2.6,4.2,1.9,1.7-.6,2.6-2.5,1.9-4.2h0Z"/>
  <path fill="white" d="M103.6,6.5c-1.8,0-3.2,1.5-3.2,3.3v22.4h-31.2V3.3c0-1.8-1.5-3.3-3.2-3.3s-3.2,1.5-3.2,3.3v55.4c0,1.8,1.5,3.3,3.2,3.3s3.2-1.5,3.2-3.3v-20h31.2v15c0,1.8,1.5,3.3,3.2,3.3s3.2-1.5,3.2-3.3V9.8c0-1.8-1.4-3.3-3.2-3.3Z"/>
  <path fill="white" d="M119.3,17.8c0-.3,0-.6-.1-.9s-.2-.5-.4-.7c-.2-.2-.5-.4-.8-.6-.4-.2-.8-.4-1.3-.6-.6-.2-1.1-.4-1.6-.7s-.9-.6-1.2-.9c-.3-.3-.6-.7-.8-1.1-.2-.4-.3-.9-.3-1.5s0-1.1.3-1.5c.2-.5.5-.9.8-1.2.4-.4.8-.6,1.3-.8.5-.2,1.1-.3,1.7-.3.9,0,1.7.2,2.3.6.6.4,1.1.9,1.4,1.6.3.7.5,1.4.5,2.1h-1.8c0-.5,0-1-.3-1.4-.2-.4-.4-.7-.8-1s-.8-.4-1.4-.4-.9.1-1.3.3c-.3.2-.6.5-.7.8-.2.3-.2.7-.2,1.2s0,.6.2.8c.1.2.3.5.5.7.2.2.5.4.8.6.3.2.7.3,1.2.5.7.2,1.3.5,1.8.8.5.3.9.6,1.2.9.3.4.5.7.7,1.2.1.4.2.9.2,1.5s0,1.1-.3,1.6c-.2.5-.5.9-.8,1.2-.4.3-.8.6-1.3.8-.5.2-1.1.3-1.7.3s-1.1,0-1.6-.3c-.5-.2-1-.5-1.5-.8-.4-.4-.8-.8-1-1.4-.3-.5-.4-1.2-.4-1.9h1.8c0,.5,0,.9.2,1.3.1.4.3.6.6.9.3.2.5.4.9.5.3.1.7.2,1.1.2s1,0,1.3-.3c.4-.2.6-.4.8-.8.2-.3.3-.7.3-1.2h0Z"/>
  <path fill="white" d="M128.7,10.8v1.4h-4.9v-1.4h4.9ZM125.3,8.2h1.7v10.6c0,.4,0,.6.1.8,0,.2.2.3.3.4.1,0,.3,0,.4,0s.2,0,.4,0c.1,0,.2,0,.3,0v1.5c-.1,0-.3,0-.5.1-.2,0-.4,0-.7,0s-.7,0-1-.3-.6-.5-.8-.9c-.2-.4-.3-1-.3-1.7v-10.6h0Z"/>
  <path fill="white" d="M137.3,16.7h.7c0,.7,0,1.3-.2,1.9-.1.6-.3,1.1-.6,1.6-.3.4-.6.8-1.1,1-.4.2-1,.4-1.6.4s-.8,0-1.2-.2c-.4-.1-.7-.4-.9-.7-.3-.3-.5-.7-.6-1.2-.1-.5-.2-1.1-.2-1.8v-6.9h1.7v6.9c0,.5,0,.9.1,1.2,0,.3.2.6.3.7.1.2.3.3.5.4.2,0,.4.1.5.1.6,0,1.1-.1,1.5-.4.4-.3.6-.7.8-1.2.2-.5.2-1.1.2-1.7h0ZM137,19v-8.2h1.7v10.6h-1.6v-2.5Z"/>
  <path fill="white" d="M145.9,20.1c.3,0,.7,0,.9-.2.3-.1.5-.4.7-.7.2-.3.3-.7.3-1.2h1.6c0,.7-.2,1.3-.5,1.9-.3.5-.8,1-1.3,1.3-.5.3-1.1.4-1.8.4s-1.3-.1-1.8-.3c-.5-.2-.9-.5-1.2-1-.3-.4-.6-.9-.7-1.5s-.2-1.3-.2-2.1v-1.2c0-.8,0-1.5.2-2.1s.4-1.1.7-1.5c.3-.4.7-.7,1.2-1,.5-.2,1.1-.3,1.8-.3s1.3.2,1.9.5c.5.3.9.7,1.2,1.3s.5,1.3.5,2.1h-1.6c0-.5-.1-1-.3-1.3-.2-.4-.4-.6-.7-.8-.3-.2-.6-.3-1-.3s-.8,0-1.1.2c-.3.2-.5.4-.7.7-.2.3-.3.7-.4,1.1,0,.4-.1.9-.1,1.4v1.2c0,.5,0,1,.1,1.4,0,.4.2.8.3,1.1.2.3.4.5.7.7.3.2.7.2,1.1.2h0Z"/>
  <path fill="white" d="M154.2,6.3v15.1h-1.7V6.3h1.7ZM159.6,10.8l-3.8,5-2.3,2.7v-1.9c-.1,0,1.5-2.2,1.5-2.2l2.5-3.5h2.1ZM158,21.4l-3-5.1.9-1.6,4.1,6.7h-2Z"/>
  <path fill="white" d="M118.5,34h.7c0,.7,0,1.3-.2,1.9-.1.6-.3,1.1-.6,1.6-.3.4-.6.8-1.1,1-.4.2-1,.4-1.6.4s-.8,0-1.2-.2c-.4-.1-.7-.4-.9-.7-.3-.3-.5-.7-.6-1.2s-.2-1.1-.2-1.8v-6.9h1.7v6.9c0,.5,0,.9.1,1.2,0,.3.2.6.3.7.1.2.3.3.5.4.2,0,.4.1.5.1.6,0,1.1-.1,1.5-.4.4-.3.6-.7.8-1.2.2-.5.2-1.1.2-1.7h0ZM118.2,36.2v-8.2h1.7v10.6h-1.6v-2.5Z"/>
  <path fill="white" d="M125.2,30.3v8.4h-1.7v-10.6h1.6v2.3c.1,0,0,0,0,0ZM124.8,32.9h-.7c0-.8,0-1.4.2-2,.2-.6.4-1.2.7-1.6.3-.5.7-.8,1.2-1.1.4-.3.9-.4,1.5-.4s.8,0,1.2.2c.3.1.7.4.9.7.2.3.4.7.6,1.2.1.5.2,1.1.2,1.8v7h-1.7v-7c0-.6,0-1-.2-1.3-.1-.3-.3-.6-.5-.7-.2-.2-.6-.2-.9-.2s-.7,0-.9.3-.6.5-.8.8c-.2.3-.4.7-.5,1.1-.1.4-.2.9-.2,1.4h0Z"/>
  <path fill="white" d="M133.8,33.9v-1c0-.9,0-1.6.3-2.3.2-.6.4-1.2.7-1.6.3-.4.7-.7,1.1-.9.4-.2.9-.3,1.4-.3s1,.1,1.4.3c.4.2.7.5,1,1,.3.4.5.9.6,1.5.2.6.3,1.3.3,2v1.3c0,.8-.2,1.4-.3,2-.2.6-.4,1.1-.6,1.5-.3.4-.6.7-1,1-.4.2-.9.3-1.4.3s-1-.1-1.4-.3c-.4-.2-.8-.5-1.1-.9-.3-.4-.6-.9-.7-1.6s-.3-1.4-.3-2.2h0ZM135.5,32.9v1c0,.6,0,1.1.1,1.5,0,.4.2.8.4,1.1.2.3.4.5.7.6.3.1.6.2,1,.2s.9-.1,1.2-.4c.3-.2.6-.5.7-.9.2-.4.3-.8.4-1.3v-2.8c0-.3-.2-.7-.3-1-.1-.3-.3-.6-.5-.8-.2-.2-.4-.4-.7-.6-.3-.1-.6-.2-.9-.2s-.7,0-1,.2c-.3.1-.5.4-.7.6-.2.3-.3.7-.4,1.1,0,.4-.1,1-.1,1.5ZM139.7,36.6v-13h1.7v15.1h-1.6v-2.1c-.1,0-.1,0-.1,0Z"/>
  <path fill="white" d="M114.9,42.6v14.3h-1.8v-14.3h1.8ZM116.3,56.9h-2.4v-1.5h2.4c.9,0,1.5-.2,2.1-.5.5-.3.9-.8,1.2-1.5.3-.7.4-1.5.4-2.4v-2.4c0-.8,0-1.4-.2-2-.1-.5-.4-1-.6-1.4-.3-.4-.7-.6-1.1-.8-.4-.2-.9-.3-1.5-.3h-2.6v-1.6h2.6c.8,0,1.5.1,2.2.4.6.3,1.2.6,1.7,1.1.5.5.8,1.1,1.1,1.9.2.7.4,1.6.4,2.6v2.4c0,1-.1,1.8-.4,2.6-.2.7-.6,1.4-1.1,1.9-.5.5-1,.9-1.7,1.1-.7.3-1.4.4-2.3.4h0Z"/>
  <path fill="white" d="M128.7,57.1c-.6,0-1.2,0-1.7-.3-.5-.2-.9-.5-1.3-.9-.4-.4-.6-.9-.8-1.5-.2-.6-.3-1.3-.3-2.1v-1.2c0-.9.1-1.7.3-2.4.2-.6.5-1.2.9-1.6.4-.4.8-.7,1.3-.9s1-.3,1.4-.3,1.2.1,1.7.3c.5.2.9.5,1.1,1,.3.4.5,1,.7,1.6s.2,1.3.2,2.1v1h-6.6v-1.5h4.9v-.2c0-.5-.1-1-.2-1.5-.1-.4-.3-.8-.6-1-.3-.2-.7-.4-1.2-.4s-.6,0-.9.2c-.3.1-.5.3-.7.6-.2.3-.3.6-.4,1.1-.1.5-.2,1.1-.2,1.8v1.2c0,.6,0,1.1.2,1.5.1.4.3.7.5,1,.2.3.5.5.8.6.3.1.7.2,1.1.2.6,0,1.1-.1,1.4-.3.4-.2.7-.5,1-.9l.9,1.1c-.2.3-.4.5-.7.8-.3.2-.7.4-1.1.6-.4.2-1,.2-1.6.2h0Z"/>
  <path fill="white" d="M139.8,54.2c0-.3,0-.5-.2-.7-.1-.2-.3-.4-.6-.6-.3-.2-.7-.4-1.2-.6-.5-.2-.9-.4-1.3-.6-.4-.2-.7-.4-1-.7-.3-.2-.5-.5-.6-.8-.1-.3-.2-.7-.2-1.1s0-.8.2-1.2c.2-.4.4-.7.7-1,.3-.3.6-.5,1.1-.6.4-.2.9-.2,1.4-.2.7,0,1.3.1,1.8.4.5.3.9.7,1.2,1.2.3.5.4,1,.4,1.6h-1.7c0-.3,0-.6-.2-.8-.1-.3-.3-.5-.6-.6-.3-.2-.6-.2-.9-.2s-.7,0-.9.2c-.2.1-.4.3-.5.5-.1.2-.2.5-.2.7s0,.4,0,.5c0,.1.1.3.3.4.1.1.3.2.6.4.2.1.5.3.9.4.7.3,1.3.6,1.8.9.5.3.9.6,1.1,1,.3.4.4.9.4,1.4s0,.9-.2,1.3c-.2.4-.4.7-.7,1-.3.3-.7.5-1.1.6-.4.1-.9.2-1.4.2-.8,0-1.5-.2-2-.5-.6-.3-1-.7-1.2-1.3-.3-.5-.4-1.1-.4-1.7h1.7c0,.5.1.9.3,1.2.2.3.5.5.7.6.3.1.6.2.9.2s.7,0,1-.2c.3-.1.5-.3.6-.5.1-.2.2-.5.2-.8Z"/>
  <path fill="white" d="M144.7,43.4c0-.3,0-.5.2-.8.2-.2.4-.3.7-.3s.6.1.7.3c.2.2.2.5.2.8s0,.5-.2.7c-.2.2-.4.3-.7.3s-.6-.1-.7-.3c-.2-.2-.2-.4-.2-.7ZM146.5,46.3v10.6h-1.7v-10.6h1.7Z"/>
  <path fill="white" d="M149.7,52.1v-1c0-.9,0-1.6.2-2.3.2-.6.4-1.2.7-1.6.3-.4.7-.7,1.1-.9.4-.2.9-.3,1.5-.3s1,.1,1.4.3c.4.2.7.5,1,1,.3.4.5.9.6,1.5.2.6.3,1.3.3,2v1.3c0,.8-.2,1.4-.3,2-.2.6-.4,1.1-.6,1.5-.3.4-.6.7-1,1-.4.2-.9.3-1.4.3s-1-.1-1.4-.3c-.4-.2-.8-.5-1.1-.9-.3-.4-.5-.9-.7-1.6-.2-.6-.2-1.4-.2-2.2h0ZM155.8,46.3h1.6v10.7c0,.9-.2,1.7-.5,2.3-.3.6-.8,1.1-1.3,1.4-.6.3-1.2.4-2,.4s-.6,0-1-.1c-.4,0-.8-.2-1.2-.4-.4-.2-.7-.5-1-.8l.7-1.2c.4.4.8.7,1.2.8.4.2.8.2,1.2.2s.8,0,1.2-.2c.3-.2.6-.4.8-.8.2-.4.3-.9.3-1.5v-8.5l.2-2.3h0ZM151.5,51.1v1c0,.6,0,1.1.1,1.5,0,.4.2.8.4,1.1.2.3.4.5.7.6.3.1.6.2,1,.2s.9-.1,1.2-.4c.3-.2.6-.5.7-.9.2-.4.3-.8.4-1.3v-2.8c0-.3-.2-.7-.3-1-.1-.3-.3-.6-.5-.8-.2-.2-.4-.4-.7-.6-.3-.1-.6-.2-.9-.2s-.7,0-1,.2c-.3.1-.5.4-.7.6-.2.3-.3.7-.4,1.1,0,.4-.1,1-.1,1.5h0Z"/>
  <path fill="white" d="M162.6,48.5v8.4h-1.7v-10.6h1.6v2.3c.1,0,0,0,0,0ZM162.2,51.2h-.7c0-.8,0-1.4.2-2,.2-.6.4-1.2.7-1.6.3-.5.7-.8,1.2-1.1s.9-.4,1.5-.4.8,0,1.2.2c.3.1.7.4.9.7.2.3.4.7.6,1.2.1.5.2,1.1.2,1.8v7h-1.7v-7c0-.6,0-1-.2-1.3-.1-.3-.3-.6-.5-.7-.2-.2-.6-.2-.9-.2s-.7,0-.9.3c-.3.2-.6.5-.8.8-.2.3-.4.7-.5,1.1-.1.4-.2.9-.2,1.4h0Z"/>
</svg>