<svg id="Ebene_1" xmlns="http://www.w3.org/2000/svg" version="1.1" viewBox="0 0 921.8 520" width="921.8" height="520">
  <path class="st0" d="M155,57.2c-14.8-5.2-31.2,2.1-36.6,16.4L0,394.9h60.5L172.1,92.3c5.4-14.2-2.2-29.9-17.1-35.1Z" fill="#BC422C"/>
  <path class="st0" d="M453.1,483.3L265,18c-5.4-14.2-21.8-21.5-36.6-16.3-14.8,5.2-22.4,20.9-17.1,35.1l105.8,261.5h-120.5c-15.8,0-28.6,12.3-28.6,27.4s12.8,27.4,28.6,27.4h142.6l60.3,149c5.4,14.2,21.8,21.5,36.6,16.3,14.8-5.2,22.4-20.9,17.1-35.1Z" fill="#BC422C"/>
  <path class="st0" d="M893.3,54.8c-15.8,0-28.5,12.2-28.5,27.4v187.7h-274.5V27.5c0-15.1-12.8-27.4-28.5-27.4s-28.6,12.3-28.6,27.4v367.4h57.1v-70.3h274.5v125.5c0,15.1,12.8,27.4,28.5,27.4s28.5-12.2,28.5-27.4V82.2c0-15.1-12.8-27.4-28.5-27.4Z" fill="#BC422C"/>
</svg>